<svg xmlns="http://www.w3.org/2000/svg" width="57" height="55" viewBox="0 0 57 55" fill="none">
  <path d="M12.4688 41.25C10.5094 41.25 8.90625 39.7031 8.90625 37.8125V17.1875C8.90625 15.2969 10.5094 13.75 12.4688 13.75C14.4281 13.75 16.0312 15.2969 16.0312 17.1875V37.8125C16.0312 39.7031 14.4281 41.25 12.4688 41.25Z" stroke="black" stroke-width="2" stroke-miterlimit="10" stroke-linecap="round" stroke-linejoin="round"/>
  <path d="M5.34375 36.0938C3.38437 36.0938 1.78125 34.5469 1.78125 32.6562V22.3438C1.78125 20.4531 3.38437 18.9062 5.34375 18.9062C7.30313 18.9062 8.90625 20.4531 8.90625 22.3438V32.6562C8.90625 34.5469 7.30313 36.0938 5.34375 36.0938Z" stroke="black" stroke-width="2" stroke-miterlimit="10" stroke-linecap="round" stroke-linejoin="round"/>
  <path d="M44.5312 13.75C46.4906 13.75 48.0938 15.2969 48.0938 17.1875V37.8125C48.0938 39.7031 46.4906 41.25 44.5312 41.25C42.5719 41.25 40.9688 39.7031 40.9688 37.8125V17.1875C40.9688 15.2969 42.5719 13.75 44.5312 13.75Z" stroke="black" stroke-width="2" stroke-miterlimit="10" stroke-linecap="round" stroke-linejoin="round"/>
  <path d="M51.6562 18.9062C53.6156 18.9062 55.2188 20.4531 55.2188 22.3438V32.6562C55.2188 34.5469 53.6156 36.0938 51.6562 36.0938C49.6969 36.0938 48.0938 34.5469 48.0938 32.6562V22.3438C48.0938 20.4531 49.6969 18.9062 51.6562 18.9062Z" stroke="black" stroke-width="2" stroke-miterlimit="10" stroke-linecap="round" stroke-linejoin="round"/>
  <path d="M16.0312 27.5H40.9688" stroke="black" stroke-width="2" stroke-miterlimit="10" stroke-linecap="round" stroke-linejoin="round"/>
</svg>