<svg xmlns="http://www.w3.org/2000/svg" width="51" height="47" viewBox="0 0 51 47" fill="none">
  <path d="M43.0313 41.125H30.1219C28.2094 41.125 26.4563 40.3906 25.0219 39.2156L4.78125 20.5625L15.9375 8.8125C15.9375 14.5406 22.4719 20.5625 28.6875 20.5625H30.2813C30.1219 27.1719 32.8313 32.0188 39.8438 34.075C40.3219 34.2219 40.6406 34.3687 41.1188 34.3687C43.0313 34.8094 44.3063 36.7188 43.8281 38.4813L43.0313 41.125Z" stroke="black" stroke-width="2" stroke-miterlimit="10" stroke-linecap="round" stroke-linejoin="round"/>
  <path d="M1.59375 23.5L23.4281 43.6219C24.7031 44.7969 26.6156 45.5312 28.5281 45.5312H43.0312" stroke="black" stroke-width="2" stroke-miterlimit="10" stroke-linecap="round" stroke-linejoin="round"/>
  <path d="M16.7344 24.9688C18.0547 24.9688 19.125 23.9824 19.125 22.7656C19.125 21.5489 18.0547 20.5625 16.7344 20.5625C15.4141 20.5625 14.3438 21.5489 14.3438 22.7656C14.3438 23.9824 15.4141 24.9688 16.7344 24.9688Z" stroke="black" stroke-width="2" stroke-miterlimit="10" stroke-linecap="round" stroke-linejoin="round"/>
  <path d="M23.9062 27.9062H31.0781" stroke="black" stroke-width="2" stroke-miterlimit="10" stroke-linecap="round" stroke-linejoin="round"/>
  <path d="M27.0938 32.3125H35.8594" stroke="black" stroke-width="2" stroke-miterlimit="10" stroke-linecap="round" stroke-linejoin="round"/>
  <path d="M44.625 1.46875L32.9906 12.1906C30.2813 14.6875 29.325 18.2125 30.2812 21.5906" stroke="black" stroke-width="2" stroke-miterlimit="10" stroke-linecap="round" stroke-linejoin="round"/>
  <path d="M15.9375 10.2812C18.9656 9.4 21.675 7.34375 23.2688 4.84687L25.5 1.46875" stroke="black" stroke-width="2" stroke-miterlimit="10" stroke-linecap="round" stroke-linejoin="round"/>
</svg>