<svg xmlns="http://www.w3.org/2000/svg" width="39" height="54" viewBox="0 0 39 54" fill="none">
  <path d="M6.52747 9.30421V13.0042C6.52747 14.2042 7.52747 15.2042 8.72747 15.2042H23.3275C24.5275 15.2042 25.5275 14.2042 25.5275 13.0042V9.20422C25.5275 8.00422 24.5275 7.00422 23.3275 7.00422H20.1275V5.10422C20.1275 2.90422 18.3275 1.10422 16.1275 1.10422C13.9275 1.10422 12.1275 2.90422 12.1275 5.10422V7.00422H8.72747C7.52747 7.20422 6.52747 8.10421 6.52747 9.30421Z" stroke="white" stroke-width="1.5" stroke-miterlimit="10"/>
  <path d="M4.42745 11.8042H3.12745C1.82745 11.8042 0.827454 12.8042 0.827454 14.1042V48.0042C0.827454 49.3042 1.82745 50.3042 3.12745 50.3042H16.4275" stroke="white" stroke-width="1.5" stroke-miterlimit="10"/>
  <path d="M27.7275 11.8042H29.0275C30.3275 11.8042 31.3275 12.8042 31.3275 14.1042V31.4042" stroke="white" stroke-width="1.5" stroke-miterlimit="10"/>
  <path d="M27.7274 53.0042C33.1398 53.0042 37.5274 48.6166 37.5274 43.2042C37.5274 37.7918 33.1398 33.4042 27.7274 33.4042C22.315 33.4042 17.9274 37.7918 17.9274 43.2042C17.9274 48.6166 22.315 53.0042 27.7274 53.0042Z" stroke="white" stroke-width="1.5" stroke-miterlimit="10"/>
  <path d="M23.2275 42.4042C23.2275 42.4042 26.5275 44.3042 26.5275 47.3042C26.5275 47.3042 28.9275 40.3042 33.9275 39.0042" stroke="white" stroke-width="1.5" stroke-miterlimit="10"/>
  <path d="M6.22748 22.4042H25.4275" stroke="white" stroke-width="1.5" stroke-miterlimit="10"/>
  <path d="M6.22748 27.9042H25.4275" stroke="white" stroke-width="1.5" stroke-miterlimit="10"/>
  <path d="M6.22748 35.0042H17.9275" stroke="white" stroke-width="1.5" stroke-miterlimit="10"/>
  <path d="M6.22748 41.7042H15.3275" stroke="white" stroke-width="1.5" stroke-miterlimit="10"/>
</svg>