<svg xmlns="http://www.w3.org/2000/svg" width="41" height="51" viewBox="0 0 41 51" fill="none">
  <path d="M33.1112 19.6542L34.7112 12.5542C36.0112 6.5542 31.5112 0.854187 25.3112 0.854187H14.5112C8.31119 0.854187 3.71119 6.75421 5.21119 12.7542L7.01119 19.8542C7.61119 22.4542 6.81119 25.1542 5.01119 27.0542C2.71119 29.3542 1.41119 32.1542 1.41119 35.2542C1.41119 42.9542 9.91119 49.2542 20.4112 49.2542C30.9112 49.2542 39.4112 43.0542 39.4112 35.2542C39.4112 32.0542 37.9112 29.0542 35.4112 26.6542C33.3112 24.9542 32.5112 22.2542 33.1112 19.6542Z" stroke="white" stroke-width="1.5" stroke-miterlimit="10"/>
  <path d="M25.8112 21.0542C22.3112 19.2542 18.6112 19.3542 14.9112 21.0542C13.7112 21.0542 12.7112 20.1542 12.6112 18.9542L12.1112 15.1542C11.6112 10.8542 14.9112 7.0542 19.3112 7.0542H21.2112C25.5112 7.0542 28.8112 10.7542 28.4112 14.9542L28.0112 18.8542C28.0112 20.1542 27.0112 21.0542 25.8112 21.0542Z" stroke="white" stroke-width="1.5" stroke-miterlimit="10"/>
  <path d="M18.9112 33.3542C19.6112 33.8542 19.9112 34.6542 19.9112 35.5542C19.9112 36.1542 19.8112 36.6542 19.5112 37.1542C19.2112 37.6542 18.7112 38.0542 18.1112 38.3542C17.5112 38.6542 16.7112 38.7542 15.8112 38.7542C15.1112 38.7542 14.4112 38.6542 13.8112 38.4542C13.1112 38.2542 12.6112 38.0542 12.1112 37.6542L13.0112 35.9542C13.4112 36.2542 13.8112 36.4542 14.3112 36.5542C14.8112 36.7542 15.3112 36.7542 15.8112 36.7542C16.4112 36.7542 16.8112 36.6542 17.1112 36.4542C17.4112 36.2542 17.6112 35.9542 17.6112 35.5542C17.6112 35.1542 17.4112 34.8542 17.1112 34.6542C16.8112 34.4542 16.2112 34.3542 15.3112 34.3542H12.8112L13.3112 28.8542H19.3112V30.6542H15.2112L15.0112 32.5542H15.8112C17.2112 32.5542 18.2112 32.7542 18.9112 33.3542Z" fill="white"/>
  <path d="M22.8112 38.1542C22.2112 37.7542 21.7112 37.1542 21.3112 36.4542C20.9112 35.6542 20.8112 34.7542 20.8112 33.7542C20.8112 32.6542 21.0112 31.7542 21.3112 31.0542C21.7112 30.2542 22.2112 29.7542 22.8112 29.3542C23.4112 28.9542 24.2112 28.7542 25.0112 28.7542C25.8112 28.7542 26.5112 28.9542 27.2112 29.3542C27.8112 29.7542 28.3112 30.3542 28.7112 31.0542C29.1112 31.8542 29.2112 32.7542 29.2112 33.7542C29.2112 34.8542 29.0112 35.7542 28.7112 36.4542C28.3112 37.2542 27.8112 37.7542 27.2112 38.1542C26.6112 38.5542 25.8112 38.7542 25.0112 38.7542C24.1112 38.7542 23.4112 38.5542 22.8112 38.1542ZM26.3112 36.1542C26.6112 35.6542 26.8112 34.8542 26.8112 33.7542C26.8112 32.6542 26.6112 31.8542 26.3112 31.3542C26.0112 30.8542 25.5112 30.5542 24.9112 30.5542C24.3112 30.5542 23.9112 30.8542 23.5112 31.3542C23.2112 31.8542 23.0112 32.6542 23.0112 33.7542C23.0112 34.8542 23.2112 35.6542 23.5112 36.1542C23.8112 36.6542 24.3112 36.9542 24.9112 36.9542C25.5112 36.8542 26.0112 36.6542 26.3112 36.1542Z" fill="white"/>
</svg>