<svg xmlns="http://www.w3.org/2000/svg" width="32" height="54" viewBox="0 0 32 54" fill="none">
  <path d="M31.0162 15.8667V46.7667C31.0162 48.3667 30.1163 49.7667 28.6163 50.3667C20.3163 54.0667 12.0163 54.0667 3.61627 50.3667C2.21627 49.7667 1.21625 48.2667 1.21625 46.7667V15.8667" stroke="white" stroke-width="1.5" stroke-miterlimit="10"/>
  <path d="M27.2162 12.3667C29.6162 13.2667 31.1163 14.5667 31.1163 15.9667C31.1163 18.8667 24.5163 21.2667 16.3163 21.2667C8.11628 21.2667 1.51624 18.8667 1.51624 15.9667C1.51624 14.3667 3.41626 12.9667 6.41626 11.9667" stroke="white" stroke-width="1.5" stroke-miterlimit="10"/>
  <path d="M26.9163 4.56671C26.9163 6.56671 22.4163 8.16672 16.8163 8.16672C11.2163 8.16672 6.71625 6.56671 6.71625 4.56671C6.71625 2.56671 11.2163 0.966705 16.8163 0.966705C22.4163 0.966705 26.9163 2.56671 26.9163 4.56671Z" stroke="white" stroke-width="1.5" stroke-miterlimit="10"/>
  <path d="M26.9163 12.9667C26.9163 14.9667 22.4163 16.5667 16.8163 16.5667C11.2163 16.5667 6.71625 14.9667 6.71625 12.9667" stroke="white" stroke-width="1.5" stroke-miterlimit="10"/>
  <path d="M6.61627 4.56671V12.9667" stroke="white" stroke-width="1.5" stroke-miterlimit="10"/>
  <path d="M26.9163 4.56671V12.9667" stroke="white" stroke-width="1.5" stroke-miterlimit="10"/>
  <path d="M14.7162 26.7667L11.1163 35.5667H18.0162L13.1163 45.5667L24.6163 33.2667H15.7162L18.5162 26.7667H14.7162Z" stroke="white" stroke-width="1.5" stroke-miterlimit="10"/>
</svg>